<svg width="134" height="71" viewBox="0 0 134 71" fill="none" xmlns="http://www.w3.org/2000/svg">
<path d="M34.608 70.176C53.424 70.176 65.2 58.912 66.224 43.296H45.616C44.976 49.312 42.544 54.816 34.48 54.816C25.904 54.816 21.808 47.52 21.808 35.232C21.808 22.944 26.032 15.648 34.48 15.648C42.672 15.648 44.976 21.536 45.616 26.912H66.224C64.56 11.552 53.04 0.287994 34.096 0.287994C13.872 0.287994 0.816 14.88 0.816 35.232C0.816 55.712 13.872 70.176 34.608 70.176ZM63.336 68H86.376L98.152 47.776H98.408L110.184 68H133.224L110.696 34.592L130.664 2.464H108.904L98.408 21.408H98.152L87.656 2.464H65.896L85.864 34.592L63.336 68Z" fill="white"/>
</svg>
